HIERARCHY
ROOT Hips
{
	OFFSET -3.958830 18.904000 13.208200
	CHANNELS 6 Xposition Yposition Zposition Zrotation Yrotation Xrotation 
	JOINT LHipJoint
	{
		OFFSET 0.000000 0.000000 0.000000
		CHANNELS 3 Zrotation Yrotation Xrotation
		JOINT LeftUpLeg
		{
			OFFSET 1.800000 -1.400000 0.085000
			CHANNELS 3 Zrotation Yrotation Xrotation
			JOINT LeftLeg
			{
				OFFSET 2.215000 -6.000000 0.000000
				CHANNELS 3 Zrotation Yrotation Xrotation
				JOINT LeftFoot
				{
					OFFSET 2.500000 -6.900000 0.000000
					CHANNELS 3 Zrotation Yrotation Xrotation
					JOINT LeftToeBase
					{
						OFFSET 0.200000 -0.500000 1.950000
						CHANNELS 3 Zrotation Yrotation Xrotation
						End Site
						{
							OFFSET 0.000000 0.000000 0.000000
						}
					}
				}
			}
		}
	}
	JOINT RHipJoint
	{
		OFFSET 0.000000 0.000000 0.000000
		CHANNELS 3 Zrotation Yrotation Xrotation
		JOINT RightUpLeg
		{
			OFFSET -1.800000 -1.400000 0.085000
			CHANNELS 3 Zrotation Yrotation Xrotation
			JOINT RightLeg
			{
				OFFSET -2.215000 -6.000000 0.000000
				CHANNELS 3 Zrotation Yrotation Xrotation
				JOINT RightFoot
				{
					OFFSET -2.500000 -6.900000 0.000000
					CHANNELS 3 Zrotation Yrotation Xrotation
					JOINT RightToeBase
					{
						OFFSET -0.200000 -0.500000 1.950000
						CHANNELS 3 Zrotation Yrotation Xrotation
						End Site
						{
							OFFSET 0.000000 0.000000 0.000000
						}
					}
				}
			}
		}
	}
	JOINT LowerBack
	{
		OFFSET 0.000000 0.000000 0.000000
		CHANNELS 3 Zrotation Yrotation Xrotation
		JOINT Spine
		{
			OFFSET -0.087000 1.940000 -0.288900
			CHANNELS 3 Zrotation Yrotation Xrotation
			JOINT Spine1
			{
				OFFSET 0.000000 1.950000 0.060000
				CHANNELS 3 Zrotation Yrotation Xrotation
				JOINT Neck
				{
					OFFSET 0.000000 0.000000 0.000000
					CHANNELS 3 Zrotation Yrotation Xrotation
					JOINT Neck1
					{
						OFFSET 0.000000 1.600000 0.340000
						CHANNELS 3 Zrotation Yrotation Xrotation
						JOINT Head
						{
							OFFSET 0.000000 1.667000 -0.240000
							CHANNELS 3 Zrotation Yrotation Xrotation
							End Site
							{
								OFFSET 0.000000 0.000000 0.000000
							}
						}
					}
				}
				JOINT LeftShoulder
				{
					OFFSET 0.000000 0.000000 0.000000
					CHANNELS 3 Zrotation Yrotation Xrotation
					JOINT LeftArm
					{
						OFFSET 2.700000 1.550000 -0.730000
						CHANNELS 3 Zrotation Yrotation Xrotation
						JOINT LeftForeArm
						{
							OFFSET 5.450000 0.000000 0.000000
							CHANNELS 3 Zrotation Yrotation Xrotation
							JOINT LeftHand
							{
								OFFSET 3.450000 0.000000 0.000000
								CHANNELS 3 Zrotation Yrotation Xrotation
								JOINT LeftHandIndex1
								{
									OFFSET 0.750000 0.000000 0.000000
									CHANNELS 3 Zrotation Yrotation Xrotation
									End Site
									{
										OFFSET 0.000000 0.000000 0.000000
									}
								}
							}
						}
					}
				}
				JOINT RightShoulder
				{
					OFFSET 0.000000 0.000000 0.000000
					CHANNELS 3 Zrotation Yrotation Xrotation
					JOINT RightArm
					{
						OFFSET -2.700000 1.550000 -0.730000
						CHANNELS 3 Zrotation Yrotation Xrotation
						JOINT RightForeArm
						{
							OFFSET -5.450000 0.000000 0.000000
							CHANNELS 3 Zrotation Yrotation Xrotation
							JOINT RightHand
							{
								OFFSET -3.450000 0.000000 0.000000
								CHANNELS 3 Zrotation Yrotation Xrotation
								JOINT RightHandIndex1
								{
									OFFSET -0.750000 0.000000 0.000000
									CHANNELS 3 Zrotation Yrotation Xrotation
									End Site
									{
										OFFSET 0.000000 0.000000 0.000000
									}
								}
							}
						}
					}
				}
			}
		}
	}
}
MOTION
Frames: 14
Frame Time: 0.016667
-1.131730 14.141500 -7.721340 -41.939205 3.040244 9.780415 -15.989883 10.605281 6.859794 -19.793378 -20.338276 -47.819962 13.478055 2.841760 57.398817 0.455614 8.684957 1.254775 0.530500 0.534890 0.432940 18.141515 -7.979017 2.822279 -7.057722 9.449119 -30.250132 0.146566 -14.191450 78.030126 -2.260042 -12.017881 0.272105 0.280730 0.035930 0.137480 -2.320046 -3.902419 -9.604129 -2.254409 8.754588 54.694547 4.852937 6.798124 23.267939 -1.044012 -0.988379 -19.606189 -7.343677 7.147662 49.733728 8.490980 5.903930 -16.428390 -4.877407 -33.207876 6.256718 -10.903692 -22.933256 1.529998 8.451074 1.868063 -1.008532 -4.031549 2.510111 0.614100 -0.134250 0.319870 0.072130 6.117366 37.184331 15.673953 17.317423 11.560901 -0.071225 -5.018941 1.796658 -0.040868 2.601526 -0.908441 -0.106910 0.301260 -0.045680 -0.087410 
-1.091850 14.109240 -7.693670 -43.422664 1.830089 8.279731 -15.854841 10.595029 6.513488 -18.355827 -18.949999 -47.016127 11.335108 4.240767 58.094713 0.499235 8.852843 1.174897 0.532500 0.529770 0.432210 18.234987 -8.024791 3.181435 -7.257973 10.881531 -31.916119 1.620639 -15.242891 78.780351 -2.329180 -12.278687 0.184265 0.262000 0.000030 0.165140 -2.639458 -3.396869 -9.606136 0.031766 7.302151 56.003815 1.981253 6.990583 22.866943 -0.214692 -1.027936 -20.045059 -7.653399 7.585570 50.040525 8.464970 6.035180 -16.039330 -5.516141 -33.450865 6.638102 -10.157790 -21.473973 1.270987 7.689595 1.641162 -0.958054 -4.013596 2.538175 0.615000 -0.149090 0.336700 0.060080 5.148171 37.171656 15.911828 18.543941 10.630447 0.049053 -4.514808 1.957049 0.027654 2.603913 -0.928472 -0.074310 0.242140 -0.046610 -0.087390 
-1.062730 14.060630 -7.620890 -44.124966 0.367734 5.840234 -15.789973 10.437695 6.239700 -17.237860 -18.295067 -46.738958 9.919441 5.625846 60.600875 0.587268 9.482342 0.965326 0.461860 0.443880 0.396250 18.313244 -7.775154 3.656869 -9.567379 12.511126 -35.541727 5.580502 -18.367432 79.200901 -2.419576 -12.839634 0.026695 0.222660 0.026870 0.164240 -2.836345 -3.117507 -9.714928 0.888265 6.753346 57.143963 -0.014972 7.137858 22.250976 0.284648 -0.831271 -19.798611 -7.469694 7.603146 50.415931 8.093850 5.968850 -15.578140 -6.446358 -33.034682 6.646004 -10.029318 -20.727902 1.530546 6.091037 1.769908 -0.900125 -4.056795 2.453521 0.622450 -0.126460 0.305660 0.014170 4.985298 36.331022 16.057728 20.135860 9.180278 -0.102963 -5.094071 0.583292 0.137505 2.625289 -0.908137 -0.103530 0.248110 0.016050 -0.101670 
-1.043470 13.980820 -7.520830 -45.418599 -1.337326 3.058975 -15.715249 10.365013 5.759919 -15.328247 -16.743282 -45.570388 6.929550 8.015363 61.813242 0.631870 10.013910 0.776886 0.437980 0.377560 0.401710 18.390300 -7.468614 4.306812 -12.595273 14.611406 -39.999616 10.607848 -22.667047 80.185029 -2.628668 -13.770442 -0.226990 0.202450 0.026630 0.198050 -3.043826 -2.898948 -9.804231 2.500661 5.800642 57.428485 -2.260812 7.087707 22.243224 1.164355 -0.430298 -19.523182 -6.629819 8.073926 51.073024 7.035360 6.679360 -14.526280 -7.662702 -32.503998 6.991097 -10.918224 -19.318907 1.405891 6.205791 1.448552 -0.958314 -4.075703 2.492395 0.639430 -0.101100 0.285410 -0.016240 4.259489 35.198766 15.840772 21.315193 8.522525 -0.150001 -5.863679 -1.246129 0.263377 2.657983 -0.941357 -0.120860 0.207940 0.051130 -0.135910 
-1.072410 13.871470 -7.442260 -48.031144 -1.414008 1.699860 -15.610577 9.953555 5.513830 -9.969924 -16.352588 -47.462411 2.036656 12.232587 66.441687 0.979650 11.500949 0.347080 0.377140 0.307100 0.321360 18.544381 -7.064108 4.965112 -15.461902 16.028911 -46.088531 17.407633 -28.224067 78.721557 -2.850277 -14.711993 -0.414354 0.153180 0.061930 0.199130 -3.404127 -2.424032 -10.041181 6.472574 2.425612 56.453783 -5.237440 6.246944 20.377142 2.249474 -0.638840 -18.954410 -7.100340 8.880401 51.452458 6.230190 6.917060 -11.210300 -9.136389 -31.017097 7.288423 -12.828183 -18.281654 1.567755 6.325143 1.017247 -0.862970 -4.050862 2.606877 0.587160 -0.059330 0.229440 0.002870 3.752963 32.972624 15.223125 22.438285 8.044994 -0.004374 -5.797535 -2.300778 0.354836 2.699520 -0.990301 -0.118220 0.160450 0.065380 -0.119110 
-1.114670 13.728850 -7.378430 -49.922250 -0.682384 1.639135 -15.566774 9.226284 5.608830 -7.295079 -17.665346 -50.946515 2.087548 14.023643 73.308872 1.375143 13.028658 -0.027297 0.275920 0.186350 0.221320 18.712121 -6.456161 5.571063 -21.435386 15.171108 -53.249363 27.392374 -35.424567 74.439762 -3.048055 -15.553621 -0.569500 0.088290 0.153860 0.198810 -3.703605 -2.026540 -10.398558 10.060586 -0.812388 53.951091 -7.959013 5.119433 18.463407 3.206203 -0.624802 -17.948080 -6.801258 9.088847 50.393820 5.879130 6.715880 -7.506090 -9.727408 -28.826292 7.093378 -14.967670 -18.337207 2.235117 5.717749 0.717794 -0.747178 -4.079338 2.673927 0.513630 0.011120 0.140070 0.014140 2.546924 29.696860 14.421535 22.814669 7.306947 0.211173 -4.801974 -1.659434 0.296040 2.700592 -1.004210 -0.139610 0.141770 0.105920 -0.091720 
-1.139180 13.630720 -7.277890 -51.426309 -1.732136 -0.256523 -15.498308 8.979204 5.418124 -5.234753 -16.812284 -51.598022 2.156820 15.543494 76.883046 1.622811 13.836726 -0.223184 0.282920 0.195200 0.203380 18.822426 -6.209665 5.982889 -24.470432 15.391418 -57.345951 33.318641 -39.784580 72.809720 -3.244867 -16.017353 -0.639211 0.074830 0.169540 0.189130 -3.980216 -1.728093 -10.507649 12.513371 -2.474639 53.280814 -9.655054 4.803741 17.306177 3.381738 -1.312790 -17.602144 -8.725155 10.224454 50.850734 8.530810 5.963610 -6.579650 -9.257950 -26.803763 6.864557 -17.894731 -18.454096 2.907695 5.155350 -0.207987 -0.670169 -3.997476 2.739040 0.503820 -0.013870 0.143370 0.038210 1.810821 27.510190 14.194477 21.575590 5.674928 -0.234558 -4.902659 -0.195574 0.201522 2.707798 -0.987693 -0.120420 0.144160 0.087510 -0.058060 
-1.123140 13.579600 -7.147950 -52.098082 -1.986926 -3.463580 -15.474167 8.982308 5.235085 -5.007924 -16.315572 -50.338393 4.623080 15.440003 81.662614 1.780617 14.523480 -0.373999 0.286080 0.172730 0.239140 18.848661 -6.085046 6.192915 -26.667459 14.931767 -58.357100 38.304046 -44.029955 71.728796 -3.412267 -16.331104 -0.653718 0.080020 0.137560 0.116390 -4.054246 -1.739499 -10.550769 13.694496 -3.808864 53.992198 -10.604069 4.225886 17.070585 3.968207 -1.211165 -17.970189 -9.233050 10.567391 52.902205 8.371510 6.039490 -5.905480 -9.912278 -26.468952 7.074140 -19.000329 -17.432752 3.034280 4.509547 -0.008851 -0.600393 -3.918660 2.686234 0.560930 -0.052660 0.142060 0.044010 1.391697 26.799020 14.273480 20.509377 4.071489 -1.190758 -7.990458 -0.388254 0.229862 2.717602 -0.997278 -0.181620 0.188020 0.061890 -0.102950 
-1.076280 13.548660 -7.007690 -52.401185 -2.978400 -7.694006 -15.407282 9.156846 4.956955 -3.821075 -14.934702 -47.581126 3.760335 17.632539 84.082900 1.944072 15.220812 -0.545240 0.278460 0.153190 0.260790 18.847803 -6.215606 6.243258 -26.840447 15.312561 -56.398221 44.692424 -48.513883 69.617546 -3.551380 -16.388008 -0.613534 0.070350 0.122690 0.079950 -4.162923 -1.633348 -10.469370 14.330354 -5.000505 55.878959 -11.981460 3.835504 17.505617 4.458040 -1.158041 -18.795997 -10.013756 11.123777 55.065079 8.743520 5.926020 -5.983330 -10.937593 -26.933998 7.495783 -18.331462 -15.655142 2.829639 3.250660 0.141119 -0.579631 -3.874449 2.598318 0.610380 -0.079530 0.154910 0.028640 1.539415 26.960639 14.575296 18.433973 2.284763 -2.418435 -11.473101 -0.227682 0.178658 2.721606 -0.989370 -0.212170 0.229520 0.067810 -0.127410 
-1.018800 13.487820 -6.878180 -51.993728 -4.042755 -11.334629 -15.333847 9.130981 4.762474 -2.949891 -13.971931 -45.656918 1.326009 20.692937 84.566694 2.099997 15.796610 -0.685646 0.335490 0.215040 0.311490 18.885401 -6.276280 6.377437 -28.033148 14.869726 -56.147693 55.752725 -54.535464 64.532598 -3.641492 -15.921147 -0.479191 0.100360 0.081400 0.076650 -4.341784 -1.353900 -10.442606 15.053018 -6.064769 57.358175 -13.736576 3.496113 17.485904 4.777796 -0.987067 -18.907867 -10.253056 11.494579 56.301833 10.044950 5.783200 -7.783470 -11.368586 -26.838113 7.537888 -18.425800 -15.085779 2.984156 2.003142 0.808994 -0.593762 -3.812650 2.567971 0.667600 -0.136560 0.217790 0.044760 1.325498 26.269954 14.210465 17.379081 0.963764 -4.202800 -16.687451 0.766616 -0.161509 2.724225 -1.085956 -0.207040 0.255190 0.032940 -0.131640 
-0.961960 13.406750 -6.753990 -51.403262 -2.532179 -14.178139 -15.327104 8.958342 4.955602 -1.807421 -15.201924 -45.485423 -3.036727 24.410320 84.430640 2.288104 16.540627 -0.845267 0.334160 0.180480 0.340270 18.893718 -6.291676 6.269120 -28.909788 11.833614 -55.335332 67.882959 -57.629183 55.334599 -3.411040 -14.625615 -0.165052 0.095980 0.053780 0.048570 -4.331546 -1.344323 -10.510003 15.308156 -7.661582 57.297344 -14.662330 2.458836 17.495806 5.448387 -0.182585 -18.717050 -8.582133 10.135124 57.366551 8.942730 5.132940 -6.914250 -12.483764 -27.010411 7.876087 -18.944684 -14.258094 2.924597 1.968352 1.394895 -0.586029 -3.780383 2.575443 0.683550 -0.147020 0.197310 0.034750 1.108056 25.500427 13.534886 17.188113 -0.308535 -6.668187 -23.447214 2.613909 -1.009632 2.693702 -1.275676 -0.236030 0.245140 0.022570 -0.166810 
-0.918760 13.331210 -6.629060 -49.101237 -0.580690 -17.314311 -15.407644 8.967125 5.311588 -2.353593 -17.556770 -45.805004 -7.865623 27.449469 82.373323 2.451705 16.983864 -0.897757 0.275810 0.128180 0.298090 18.807183 -6.403635 5.848672 -29.672749 6.831089 -53.157134 88.604185 -58.310297 39.060071 -3.018605 -12.682895 0.356231 0.078690 0.097220 -0.005150 -4.058691 -1.768852 -10.537065 12.245115 -7.100925 58.065119 -13.392010 1.727086 17.166242 5.388727 0.225899 -18.551657 -7.775969 10.045782 57.919368 9.322760 5.164410 -5.441240 -13.488794 -27.043443 8.249508 -20.441223 -13.730623 2.971452 2.647515 1.503891 -0.527710 -3.769687 2.555355 0.670110 -0.125040 0.153170 0.032070 2.193366 25.156073 13.156834 15.098884 -2.796732 -9.197875 -29.815214 6.023296 -2.353362 2.617856 -1.385295 -0.284570 0.290350 0.042710 -0.168630 
-0.909350 13.285200 -6.524080 -45.486548 1.071589 -19.877385 -15.542916 9.047246 5.635939 -4.153864 -19.871692 -46.898078 -10.940972 28.395640 79.253586 2.485187 16.794445 -0.875932 0.312350 0.182060 0.313530 18.677857 -6.457373 5.434198 -31.408173 2.793992 -50.033778 103.334070 -55.791615 27.585723 -2.889649 -11.808051 0.555492 0.081870 0.035170 0.050440 -3.658401 -2.314210 -10.566335 7.093893 -4.263200 58.869450 -11.166306 1.716694 16.819294 4.938623 0.979757 -17.899200 -5.835169 9.088944 57.832123 9.178720 5.441330 -6.389110 -13.176131 -26.691962 8.425564 -21.411856 -14.060736 3.339460 1.485845 1.765061 -0.516863 -3.739291 2.660769 0.653600 -0.144720 0.196980 0.021130 2.613492 24.702227 12.441218 14.245848 -4.226620 -11.708164 -37.150472 9.266030 -4.239573 2.576500 -1.562035 -0.211120 0.203630 0.027060 -0.158250 
-0.905550 13.204380 -6.410070 -41.873736 1.280354 -21.206706 -15.681038 8.915554 5.975823 -5.884144 -22.178077 -50.513698 -11.942649 26.844825 75.004668 2.269403 15.936415 -0.695340 0.280530 0.165670 0.267940 18.599081 -6.297124 5.260413 -34.121862 -0.031679 -47.267997 114.705432 -51.358638 18.655373 -2.829517 -11.453742 0.662005 0.077190 0.062220 0.059210 -3.352487 -2.699072 -10.656620 2.757859 -1.268691 57.984980 -9.722641 2.272604 16.406298 4.595843 1.014705 -17.093364 -5.516103 9.017407 56.763068 9.787790 5.144720 -6.334450 -12.486301 -25.537229 8.296034 -23.591943 -14.413116 3.766964 1.087711 1.907969 -0.513962 -3.771157 2.701253 0.617060 -0.120540 0.168210 0.000240 2.468680 24.103001 11.626430 13.607118 -5.077456 -13.805519 -44.485820 13.258917 -6.802459 2.494505 -1.642064 -0.202800 0.193800 0.065560 -0.142320 
